<svg width="200" height="200" viewBox="0 0 200 200" fill="none" xmlns="http://www.w3.org/2000/svg">
<circle cx="100" cy="100" r="100" fill="#3CBEDB"/>
<g clip-path="url(#clip0_401_12)">
<path d="M160 117.056C160 107.436 153.358 99.3721 144.415 97.1948C144.035 82.1127 131.705 70 116.54 70C107.658 70 99.7511 74.1595 94.6431 80.6327C91.7788 76.9298 87.2966 74.5436 82.2555 74.5436C73.6059 74.5436 66.5943 81.5601 66.5943 90.2141C66.5943 90.9684 66.6505 91.7095 66.7541 92.4353C65.4391 92.1981 64.0862 92.0676 62.703 92.0676C50.1641 92.0673 40 102.238 40 114.783C40 127.33 50.1641 137.5 62.7027 137.5L139.608 137.499C150.875 137.477 160 128.333 160 117.056Z" fill="white"/>
</g>
<defs>
<clipPath id="clip0_401_12">
<rect width="120" height="120" fill="white" transform="translate(40 40)"/>
</clipPath>
</defs>
</svg>
